<svg xmlns="http://www.w3.org/2000/svg" width="1000" height="660" viewBox="0 0 1000 660">
<rect width="100%" height="100%" fill="#0b1020"/>
<style>text{font-family:ui-monospace,monospace;fill:#dbeafe} .axis{stroke:#64748b;stroke-width:1}</style>
<text x="50" y="38" font-size="23" font-weight="bold">A5 Phase 1 — finite-defect kaolinite aging ensembles</text>
<text x="50" y="63" font-size="13" fill="#94a3b8">64 replicas per density; reduced mechanism-class deck, not calibrated kinetics</text>
<text x="100" y="88" font-size="13" fill="#38bdf8">p=0.05</text><text x="290" y="88" font-size="13" fill="#34d399">p=0.15</text><text x="480" y="88" font-size="13" fill="#facc15">p=0.25</text><text x="670" y="88" font-size="13" fill="#fb7185">p=0.50</text>
<line class="axis" x1="90" y1="320" x2="910" y2="320"/><line class="axis" x1="90" y1="110" x2="90" y2="320"/>
<polyline fill="none" stroke="#38bdf8" stroke-width="2.5" points="90.00,160.03 105.11,222.79 133.57,267.28 152.59,261.38 165.65,257.13 177.47,253.90 186.22,251.28 194.40,249.07 202.00,247.15 209.00,245.65 215.39,244.45 220.85,243.29 225.85,242.27 230.20,241.43 235.91,240.67 240.83,240.04 245.40,239.51 249.35,239.07 254.07,238.66 258.94,238.37 263.61,238.03 267.66,237.76 272.05,237.62 276.85,237.58 281.57,237.59 286.50,237.65 291.23,237.72 296.25,237.80 300.96,237.95 305.43,238.15 310.51,238.50 316.05,238.89 321.63,239.32 327.91,239.81 333.55,240.39 340.19,241.02 346.21,241.71 353.14,242.50 360.68,243.35 369.24,244.32 377.74,245.35 386.97,246.49 396.40,247.75 406.41,249.11 417.46,250.58 428.92,252.17 442.04,253.93 456.32,255.91 471.84,258.08 489.41,260.49 509.55,263.23 531.65,266.38 557.50,270.04 591.64,274.43 630.39,279.91 684.36,287.19 760.86,298.05 910.00,320.00"/><polyline fill="none" stroke="#34d399" stroke-width="2.5" points="90.00,136.74 90.10,150.50 93.23,181.10 104.93,248.98 118.39,253.96 129.30,251.00 138.59,248.81 146.47,246.89 153.55,245.31 159.88,243.93 166.31,242.85 172.24,241.83 178.19,240.90 183.41,240.16 188.66,239.45 194.04,238.89 199.37,238.44 203.88,238.01 208.26,237.61 213.10,237.32 217.54,237.09 222.24,236.88 227.01,236.75 231.80,236.76 236.81,236.84 242.22,236.88 247.53,237.05 253.10,237.26 258.42,237.55 264.12,237.83 269.70,238.15 275.80,238.52 281.91,238.96 288.69,239.50 295.20,240.08 302.18,240.74 308.96,241.48 316.91,242.28 324.71,243.20 333.25,244.15 342.52,245.22 352.29,246.36 362.89,247.62 374.02,248.98 384.72,250.47 397.52,252.10 410.77,253.90 424.13,255.86 440.03,258.03 458.90,260.47 479.48,263.24 500.64,266.36 525.47,270.04 556.00,274.42 596.14,279.91 647.88,287.19 723.54,298.05 860.79,320.00"/><polyline fill="none" stroke="#facc15" stroke-width="2.5" points="90.00,124.87 90.05,131.92 90.13,142.29 90.66,161.20 96.26,200.44 107.30,251.02 118.72,248.81 127.34,246.95 134.73,245.36 141.96,243.92 148.68,242.76 154.85,241.85 160.35,241.05 165.67,240.27 171.00,239.67 176.14,239.09 180.92,238.61 186.34,238.30 191.17,237.95 195.94,237.66 201.00,237.46 205.81,237.30 210.76,237.22 215.47,237.12 220.83,237.13 225.84,237.20 231.32,237.35 236.90,237.54 242.46,237.75 248.26,238.02 254.05,238.33 260.02,238.72 266.38,239.15 272.47,239.65 278.96,240.17 285.90,240.85 293.41,241.54 301.36,242.33 308.84,243.23 317.05,244.17 325.54,245.22 335.09,246.38 344.82,247.62 355.95,248.99 367.53,250.46 379.40,252.09 392.47,253.88 406.27,255.84 421.36,258.02 440.15,260.46 459.67,263.22 482.79,266.36 507.50,270.03 538.69,274.42 577.74,279.91 626.65,287.19 705.19,298.05 846.64,320.00"/><polyline fill="none" stroke="#fb7185" stroke-width="2.5" points="90.00,110.00 90.02,113.36 90.05,117.31 90.08,122.13 90.12,128.25 90.18,136.70 90.38,150.19 92.40,175.79 99.04,228.92 107.79,246.88 116.23,245.55 124.40,244.43 132.42,243.51 139.45,242.58 146.14,241.79 152.22,241.07 157.20,240.43 162.70,239.88 168.19,239.43 173.67,239.03 179.20,238.67 184.81,238.47 190.31,238.32 196.16,238.18 201.43,238.07 207.01,238.08 212.91,238.03 218.75,238.18 224.57,238.34 230.86,238.54 237.27,238.83 243.84,239.18 250.48,239.54 257.19,240.00 264.45,240.47 271.94,241.09 279.56,241.81 287.64,242.56 296.01,243.44 304.73,244.40 313.09,245.41 322.99,246.52 332.52,247.73 342.99,249.06 353.68,250.54 365.62,252.14 378.50,253.88 394.12,255.86 409.20,258.04 427.33,260.48 448.21,263.23 471.28,266.37 496.26,270.04 526.34,274.42 564.27,279.91 617.81,287.19 696.69,298.05 846.23,320.00"/>
<text x="96" y="128" font-size="14">log10 apparent propensity vs mean exposure age</text>
<text x="370" y="350" font-size="13">mean exposure age (simulation time)</text>
<line class="axis" x1="90" y1="580" x2="910" y2="580"/><line class="axis" x1="90" y1="410" x2="90" y2="580"/>
<polyline fill="none" stroke="#fb7185" stroke-width="3" points="90.00,487.27 272.22,460.06 454.44,445.56 910.00,425.45"/>
<text x="96" y="430" font-size="14">mean log10 fresh/aged apparent-rate drop</text>
<text x="390" y="615" font-size="13">initial defect probability</text>
<text x="50" y="646" font-size="12" fill="#94a3b8">Aged sample = step 140, after every replica's finite fast-site inventory is exhausted.</text>
</svg>
